# xmcd CD database file generated by OrangeCD 5.1
#
# Track frame offsets:
#	183
#	8455
#	26475
#	47998
#	75740
#	95330
#	122115
#	144903
#	167618
#	189788
#	217760
#
# Disc length: 3256 seconds
#
# Revision: 0
# Processed by: cddbd v1.4PL0 Copyright (c) Steve Scherf et al.
# Submitted via: OrangeCD 5.1
#
DISCID=7b0cb60b
DTITLE=Candi Staton - The Gospel Album
DYEAR=1996
DGENRE=Blues
TTITLE0=Hallel
TTITLE1=Stand Up (And Be A Witness)
TTITLE2=He's Always Been There
TTITLE3=It's Not Easy
TTITLE4=I'm Depending On You
TTITLE5=The First Face I Want To See
TTITLE6=Have You Tried God
TTITLE7=Let Not Your Heart Be Troubled
TTITLE8=He Is Lord
TTITLE9=You Don't Know The God You Serve
TTITLE10=The Blood Rushes
EXTD=
EXTT0=
EXTT1=
EXTT2=
EXTT3=
EXTT4=
EXTT5=
EXTT6=
EXTT7=
EXTT8=
EXTT9=
EXTT10=
PLAYORDER=
